# xmcd
#
# Track frame offsets:
#	150
#	13810
#	25812
#	39811
#	53869
#	66825
#	79698
#	93039
#	108093
#	119725
#	130976
#	146490
#	158456
#	170466
#	182312
#	195175
#	206364
#	218893
#	232454
#	246340
#	259368
#	271293
#	286488
#	301282
#
# Disc length: 4195 seconds
#
# Revision: 0
# Processed by: cddbd v1.5.2PL0 Copyright (c) Steve Scherf et al.
# Submitted via: EasyCDDAExtractor 10.0.5.1
#
DISCID=4d106118
DTITLE=The Blue Sky Boys - The Blue Sky Boys - Disc A (Charlotte, NC (1936-37)
DYEAR=2007
DGENRE=Country
TTITLE0=I'm Just Here To Get My Baby Out Of Jail
TTITLE1=Sunny Side Of Life
TTITLE2=There'll Come A Time
TTITLE3=Where The Soul Never Dies
TTITLE4=Midnight On The Stormy Sea
TTITLE5=Take Up Thy Cross
TTITLE6=Row Us Over The Tide
TTITLE7=Down On The Banks Of The Ohio
TTITLE8=I'm Troubled, I'm Troubled
TTITLE9=The Dying Boy's Prayer
TTITLE10=No One To Welcome Me Home
TTITLE11=Didn't They Crucify My Lord
TTITLE12=Only Let Me Walk With thee
TTITLE13=Can't You Hear That Night Bird Crying
TTITLE14=An Old Account Was Settled
TTITLE15=Sweet Allalee
TTITLE16=You Give Me Your Love
TTITLE17=I Believe It
TTITLE18=When The Ransomed Get Home
TTITLE19=Fair Eyed Ellen
TTITLE20=Somebody Makes Me Think Of You
TTITLE21=Sweet Evalina
TTITLE22=No Home
TTITLE23=What Have You Done
EXTD=
EXTT0=
EXTT1=
EXTT2=
EXTT3=
EXTT4=
EXTT5=
EXTT6=
EXTT7=
EXTT8=
EXTT9=
EXTT10=
EXTT11=
EXTT12=
EXTT13=
EXTT14=
EXTT15=
EXTT16=
EXTT17=
EXTT18=
EXTT19=
EXTT20=
EXTT21=
EXTT22=
EXTT23=
PLAYORDER=
